<svg xmlns="http://www.w3.org/2000/svg" width="320" height="320" viewBox="0 0 320 320" fill="none"><path d="M32 132.625H245.562C248.586 132.625 251.037 135.077 251.037 138.101V190.112M32 132.625V264.024C32 267.048 34.4517 269.5 37.4759 269.5H245.562C248.586 269.5 251.037 267.048 251.037 264.024V190.112M32 132.625L230.964 52.519C233.744 51.3998 236.907 52.723 238.062 55.4883L285.871 169.959C287.044 172.767 285.702 175.992 282.884 177.14L251.037 190.112" stroke="url(#paint0_linear_219_33)" stroke-width="12"></path><path d="M52.5352 219.167V181.523C52.5352 178.651 54.7976 176.345 57.5376 175.481C67.1022 172.466 72.3768 163.258 74.6728 156.231C75.498 153.705 77.7449 151.787 80.402 151.787H199.378C201.636 151.787 203.639 153.187 204.593 155.234C210.458 167.822 218.915 173.429 225.139 175.46C228.014 176.398 230.503 178.876 230.503 181.901V216.692C230.503 219.482 228.35 221.817 225.854 223.064C218.301 226.835 210.537 236.761 206.137 243.572C205.084 245.202 203.301 246.231 201.361 246.231H80.8085C77.9764 246.231 75.6778 244.016 74.6002 241.397C71.3428 233.48 62.4996 227.561 56.0168 224.457C53.9579 223.472 52.5352 221.45 52.5352 219.167Z" stroke="url(#paint1_linear_219_33)" stroke-width="8"></path><path d="M203.667 89.2176C213.782 98.8304 223.755 100.914 230.274 100.491C233.224 100.299 236.375 101.603 237.539 104.321L248.034 128.809C248.808 130.616 247.483 132.626 245.517 132.626L90.8664 132.626L197.429 87.9627C199.556 87.0712 201.995 87.6288 203.667 89.2176Z" stroke="url(#paint2_linear_219_33)" stroke-width="8"></path><circle cx="140.149" cy="199.694" r="24.6396" stroke="url(#paint3_linear_219_33)" stroke-width="12"></circle><circle cx="82.6517" cy="199.695" r="5.47594" stroke="url(#paint4_linear_219_33)" stroke-width="8"></circle><circle cx="197.648" cy="199.695" r="5.47594" stroke="url(#paint5_linear_219_33)" stroke-width="8"></circle><defs><linearGradient id="paint0_linear_219_33" x1="32" y1="160" x2="288" y2="160" gradientUnits="userSpaceOnUse"><stop stop-color="#F1703C"></stop><stop offset="0.29" stop-color="#F06D3F"></stop><stop offset="0.53" stop-color="#EF6449"></stop><stop offset="0.75" stop-color="#EC545A"></stop><stop offset="0.95" stop-color="#E93F72"></stop><stop offset="1" stop-color="#E93A79"></stop></linearGradient><linearGradient id="paint1_linear_219_33" x1="52.5352" y1="199.009" x2="230.503" y2="199.009" gradientUnits="userSpaceOnUse"><stop stop-color="#F1703C"></stop><stop offset="0.29" stop-color="#F06D3F"></stop><stop offset="0.53" stop-color="#EF6449"></stop><stop offset="0.75" stop-color="#EC545A"></stop><stop offset="0.95" stop-color="#E93F72"></stop><stop offset="1" stop-color="#E93A79"></stop></linearGradient><linearGradient id="paint2_linear_219_33" x1="100.889" y1="158.234" x2="238.598" y2="104.338" gradientUnits="userSpaceOnUse"><stop stop-color="#F1703C"></stop><stop offset="0.29" stop-color="#F06D3F"></stop><stop offset="0.53" stop-color="#EF6449"></stop><stop offset="0.75" stop-color="#EC545A"></stop><stop offset="0.95" stop-color="#E93F72"></stop><stop offset="1" stop-color="#E93A79"></stop></linearGradient><linearGradient id="paint3_linear_219_33" x1="115.51" y1="199.694" x2="164.789" y2="199.694" gradientUnits="userSpaceOnUse"><stop stop-color="#F1703C"></stop><stop offset="0.29" stop-color="#F06D3F"></stop><stop offset="0.53" stop-color="#EF6449"></stop><stop offset="0.75" stop-color="#EC545A"></stop><stop offset="0.95" stop-color="#E93F72"></stop><stop offset="1" stop-color="#E93A79"></stop></linearGradient><linearGradient id="paint4_linear_219_33" x1="77.1758" y1="199.695" x2="88.1277" y2="199.695" gradientUnits="userSpaceOnUse"><stop stop-color="#F1703C"></stop><stop offset="0.29" stop-color="#F06D3F"></stop><stop offset="0.53" stop-color="#EF6449"></stop><stop offset="0.75" stop-color="#EC545A"></stop><stop offset="0.95" stop-color="#E93F72"></stop><stop offset="1" stop-color="#E93A79"></stop></linearGradient><linearGradient id="paint5_linear_219_33" x1="192.172" y1="199.695" x2="203.124" y2="199.695" gradientUnits="userSpaceOnUse"><stop stop-color="#F1703C"></stop><stop offset="0.29" stop-color="#F06D3F"></stop><stop offset="0.53" stop-color="#EF6449"></stop><stop offset="0.75" stop-color="#EC545A"></stop><stop offset="0.95" stop-color="#E93F72"></stop><stop offset="1" stop-color="#E93A79"></stop></linearGradient></defs></svg>